<svg id="Livello_1" data-name="Livello 1" xmlns="http://www.w3.org/2000/svg" viewBox="0 0 66 66"><defs><style>.cls-1{fill:#fff;}</style></defs><g id="Oval"><path class="cls-1" d="M33,65.94A32.94,32.94,0,1,1,66,33,33,33,0,0,1,33,65.94Zm0-62.3A29.53,29.53,0,0,0,3.37,33a29.63,29.63,0,0,0,59.26,0A29.53,29.53,0,0,0,33,3.64Z"/></g><ellipse class="cls-1" cx="33" cy="47.81" rx="3.67" ry="3.45"/><path class="cls-1" d="M33,14.74A10.79,10.79,0,0,0,22,25.27a2.75,2.75,0,0,0,5.5,0,5.52,5.52,0,0,1,11,0A5.39,5.39,0,0,1,33,30.53a2.69,2.69,0,0,0-2.75,2.63v6.59a2.75,2.75,0,0,0,5.5,0V35.46A10.64,10.64,0,0,0,44,25.27,10.79,10.79,0,0,0,33,14.74Z"/></svg>